<svg xmlns="http://www.w3.org/2000/svg" version="1.1" viewBox="-5.0 -10.0 110.0 112.0">
 <path d="m90.07 16.859s-9.8398-9.1602-10.012-9.3203c-0.19922-0.17969-0.44922-0.28906-0.71875-0.28906h-50.301c-0.71094 0-1.2695 0.55859-1.2695 1.2695v42.68c-10.238 1.3203-18.18 10.082-18.18 20.672 0 11.512 9.3594 20.871 20.871 20.871 5.2305 0 10.012-1.9492 13.68-5.1406h43.32c1.6289 0 2.9609-1.3281 2.9609-2.9609v-67c-0.011719-0.30078-0.13281-0.58203-0.35156-0.78125zm-9.2695-5.7383c1.9688 1.8398 4.8086 4.4688 6.4688 6.0195h-6.4688zm-50.34 79.508c-10.34 0-18.762-8.4102-18.762-18.762 0-10.34 8.4102-18.762 18.762-18.762 10.34 0 18.762 8.4102 18.762 18.762-0.003906 10.344-8.4219 18.762-18.762 18.762zm5.7109-38.809v-8.0312h9.8906v10.34h-4.6719c-1.6094-1-3.3594-1.7773-5.2188-2.3086zm52.129 32.82c0 0.46875-0.37891 0.85156-0.83984 0.85156l-41.223-0.003907c3.1602-3.6602 5.0898-8.4102 5.0898-13.609 0-6.2188-2.75-11.809-7.0898-15.629h2.8789c0.57812 0 1.0586-0.46875 1.0586-1.0586l0.003907-12.461c0-0.57812-0.46875-1.0586-1.0586-1.0586h-12c-0.57812 0-1.0586 0.46875-1.0586 1.0586v8.6094c-1.1719-0.19922-2.3711-0.32812-3.6016-0.32812-0.19141 0-0.37891 0.019531-0.57813 0.03125l-0.003906-41.672h48.809v8.8203c0 0.57812 0.46875 1.0586 1.0586 1.0586h8.5508z" fill="#FFCC00"/>
 <path d="m42.719 62.641c-1.4492-1.4414-3.8086-1.4414-5.2617 0.011719l-10.188 10.129-3.8086-3.7891c-1.4609-1.4492-3.8281-1.4492-5.2812 0.011718-0.69922 0.69922-1.0898 1.6406-1.0898 2.6289 0 0.98828 0.39062 1.9219 1.0898 2.6289l7.1992 7.1602c0.51953 0.51953 1.1992 0.76953 1.8789 0.76953 0.67969 0 1.3711-0.26172 1.8906-0.78125l13.57-13.488c0.71094-0.69922 1.1016-1.6406 1.1016-2.6289 0-1.0117-0.39062-1.9531-1.1016-2.6523zm-1.4805 3.7695-13.57 13.5c-0.21875 0.21875-0.57031 0.21875-0.78906 0l-7.1992-7.1602c-0.30078-0.30078-0.46875-0.69922-0.46875-1.1289 0-0.42969 0.17187-0.82812 0.46875-1.1289 0.32031-0.32031 0.73047-0.46875 1.1484-0.46875 0.41016 0 0.82812 0.16016 1.1484 0.46875l4.3789 4.3516c0.51172 0.51172 1.3398 0.51172 1.8516 0l10.75-10.691c0.62891-0.62891 1.6602-0.62891 2.2891 0 0.30859 0.30078 0.46875 0.69922 0.46875 1.1289-0.003906 0.41797-0.17578 0.82812-0.47656 1.1289z" fill="#FFCC00"/>
 <path d="m47.121 22.121h-12c-0.57812 0-1.0586 0.46875-1.0586 1.0586v12.461c0 0.57812 0.46875 1.0586 1.0586 1.0586h12c0.57812 0 1.0586-0.46875 1.0586-1.0586v-12.469c-0.007813-0.58203-0.48047-1.0508-1.0586-1.0508zm-1.0625 12.449h-9.8906l0.003906-10.34h9.8906z" fill="#FFCC00"/>
 <path d="m53.77 24.91c-0.57812 0-1.0586 0.46875-1.0586 1.0586 0 0.57812 0.46875 1.0586 1.0586 1.0586h25.621c0.57812 0 1.0586-0.46875 1.0586-1.0586 0-0.57812-0.46875-1.0586-1.0586-1.0586z" fill="#FFCC00"/>
 <path d="m79.391 31.609h-25.621c-0.57812 0-1.0586 0.46875-1.0586 1.0586 0 0.58984 0.46875 1.0586 1.0586 1.0586h25.621c0.57812 0 1.0586-0.46875 1.0586-1.0586 0-0.58984-0.46875-1.0586-1.0586-1.0586z" fill="#FFCC00"/>
 <path d="m39.859 32.012c0.19922 0.19922 0.46875 0.30859 0.75 0.30859h0.03125c0.28906-0.011718 0.57031-0.14062 0.76172-0.35156l3.3086-3.7305c0.39062-0.44141 0.35156-1.1016-0.089844-1.4883-0.44141-0.39062-1.1016-0.35156-1.4883 0.089844l-2.5703 2.8906-1.4883-1.4883c-0.41016-0.41016-1.0781-0.41016-1.4883 0-0.41016 0.41016-0.41016 1.0781 0 1.4883z" fill="#FFCC00"/>
 <path d="m79.391 44.461h-25.621c-0.57812 0-1.0586 0.46875-1.0586 1.0586 0 0.58984 0.46875 1.0586 1.0586 1.0586h25.621c0.57812 0 1.0586-0.46875 1.0586-1.0586 0-0.58984-0.46875-1.0586-1.0586-1.0586z" fill="#FFCC00"/>
 <path d="m79.391 51.172h-25.621c-0.57812 0-1.0586 0.46875-1.0586 1.0586 0 0.57812 0.46875 1.0586 1.0586 1.0586h25.621c0.57812 0 1.0586-0.46875 1.0586-1.0586 0-0.58984-0.46875-1.0586-1.0586-1.0586z" fill="#FFCC00"/>
 <path d="m43.121 46.391-2.5703 2.8906-1.4883-1.4883c-0.41016-0.41016-1.0781-0.41016-1.4883 0-0.41016 0.41016-0.41016 1.0781 0 1.4883l2.2891 2.2891c0.19922 0.19922 0.46875 0.30859 0.75 0.30859h0.03125c0.28906-0.011718 0.57031-0.14062 0.76172-0.35156l3.3086-3.7305c0.39062-0.44141 0.35156-1.1016-0.089844-1.4883-0.44531-0.39844-1.1133-0.35938-1.5039 0.082031z" fill="#FFCC00"/>
 <path d="m79.391 64.109h-25.621c-0.57812 0-1.0586 0.46875-1.0586 1.0586 0 0.58984 0.46875 1.0586 1.0586 1.0586h25.621c0.57812 0 1.0586-0.46875 1.0586-1.0586 0-0.58984-0.46875-1.0586-1.0586-1.0586z" fill="#FFCC00"/>
 <path d="m79.391 70.82h-25.621c-0.57812 0-1.0586 0.46875-1.0586 1.0586 0 0.57812 0.46875 1.0586 1.0586 1.0586h25.621c0.57812 0 1.0586-0.46875 1.0586-1.0586s-0.46875-1.0586-1.0586-1.0586z" fill="#FFCC00"/>
</svg>