<svg xmlns="http://www.w3.org/2000/svg" version="1.1" viewBox="-5.0 -10.0 110.0 110.0" fill="#FFCC00">
 <path d="m10.453 23.336h-2.7266v6.082h2.7266zm79.094 6.082h2.7266v-6.082h-2.7266zm-17.348-6.082h-13.527v6.082h13.527zm-30.871 0h-13.527v6.082h13.527zm48.219 30.734h2.7266v-6.082h-2.7266zm-17.348-6.082h-13.527v6.082h13.527zm-13.527-2.7305h13.527v-13.113h-13.527zm-17.344 2.7305h-13.527v6.082h13.527zm-13.527-2.7305h13.527v-13.113h-13.527zm-17.348 2.7305h-2.7266v6.082h2.7266zm64.477 41.484h11.891l-0.003906-72.438-5.9453-5.9453-5.9453 5.9453v72.438zm-16.258 0h13.527v-32.676h-13.527zm-14.617 0h11.891v-72.438l-5.9453-5.9453-5.9453 5.9453zm-16.254 0h13.527v-32.676h-13.527zm-14.621 0h11.891v-72.438l-5.9453-5.9453-5.9453 5.9453zm-6.8164 2.7266c-0.75391 0-1.3633-0.60938-1.3633-1.3633 0-0.75391 0.60938-1.3633 1.3633-1.3633h4.0898v-32.676h-4.0898c-0.75391 0-1.3633-0.60938-1.3633-1.3633v-8.8086c0-0.75391 0.60938-1.3633 1.3633-1.3633h4.0898v-13.113h-4.0898c-0.75391 0-1.3633-0.60938-1.3633-1.3633v-8.8086c0-0.75391 0.60938-1.3633 1.3633-1.3633h4.0898v-4.1367c0-0.37891 0.15625-0.72266 0.40625-0.97266l7.3008-7.3008c0.53125-0.53125 1.3945-0.53125 1.9297 0l7.3086 7.3086c0.26562 0.26562 0.39844 0.61328 0.39844 0.96484v4.1367h13.527v-4.1367c0-0.37891 0.15625-0.72266 0.40625-0.97266l7.3008-7.3008c0.53125-0.53125 1.3945-0.53125 1.9297 0l7.3086 7.3086c0.26562 0.26562 0.39844 0.61328 0.39844 0.96484v4.1367h13.527v-4.1367c0-0.37891 0.15625-0.72266 0.40625-0.97266l7.3008-7.3008c0.53125-0.53125 1.3945-0.53125 1.9297 0l7.3086 7.3086c0.26562 0.26562 0.39844 0.61328 0.39844 0.96484v4.1367h4.0898c0.75391 0 1.3633 0.60938 1.3633 1.3633v8.8086c0 0.75391-0.60938 1.3633-1.3633 1.3633h-4.0898v13.113h4.0898c0.75391 0 1.3633 0.60938 1.3633 1.3633v8.8086c0 0.75391-0.60938 1.3633-1.3633 1.3633h-4.0898v32.676h4.0898c0.75391 0 1.3633 0.60938 1.3633 1.3633 0 0.75391-0.60938 1.3633-1.3633 1.3633zm12.758-64.461c-0.75391 0-1.3633-0.60938-1.3633-1.3633s0.60938-1.3633 1.3633-1.3633h0.015625c0.75391 0 1.3633 0.60938 1.3633 1.3633s-0.60938 1.3633-1.3633 1.3633zm0 24.652c-0.75391 0-1.3633-0.60938-1.3633-1.3633s0.60938-1.3633 1.3633-1.3633h0.015625c0.75391 0 1.3633 0.60938 1.3633 1.3633s-0.60938 1.3633-1.3633 1.3633zm30.871-24.652c-0.75391 0-1.3633-0.60938-1.3633-1.3633s0.60938-1.3633 1.3633-1.3633h0.015624c0.75391 0 1.3633 0.60938 1.3633 1.3633s-0.60938 1.3633-1.3633 1.3633zm0 24.652c-0.75391 0-1.3633-0.60938-1.3633-1.3633s0.60938-1.3633 1.3633-1.3633h0.015624c0.75391 0 1.3633 0.60938 1.3633 1.3633s-0.60938 1.3633-1.3633 1.3633zm30.875-24.652c-0.75391 0-1.3633-0.60938-1.3633-1.3633s0.60938-1.3633 1.3633-1.3633h0.015624c0.75391 0 1.3633 0.60938 1.3633 1.3633s-0.60938 1.3633-1.3633 1.3633zm0 24.652c-0.75391 0-1.3633-0.60938-1.3633-1.3633s0.60938-1.3633 1.3633-1.3633h0.015624c0.75391 0 1.3633 0.60938 1.3633 1.3633s-0.60938 1.3633-1.3633 1.3633z" fill-rule="evenodd"/>
</svg>
