<svg xmlns="http://www.w3.org/2000/svg" version="1.1" viewBox="-5.0 -10.0 110.0 110.0" fill="#FFCC00">
 <path d="m89.062 21.875h-5.6367c-1.8984-4.707-6.3789-7.8125-11.551-7.8125h-15.625c-4.3086 0-7.8125 3.5039-7.8125 7.8125-2.7578 0.10156-9.7891-0.33203-12.406 0.48438-1.2344 0.28906-4.3125 1.1562-5.5625 1.2344v-6.5195c1.3438-0.34766 2.3438-1.5625 2.3438-3.0156v-3.125c0-1.7227-1.4023-3.125-3.125-3.125l-20.312 0.003906c-1.7227 0-3.125 1.4023-3.125 3.125v3.125c0 1.4531 1 2.6641 2.3438 3.0156v25.223c-1.3438 0.34766-2.3438 1.5625-2.3438 3.0156v3.125c0 1.7227 1.4023 3.125 3.125 3.125h20.312c1.7227 0 3.125-1.4023 3.125-3.125v-3.125c0-1.4531-1-2.6641-2.3438-3.0156v-6.5156c2.6562 0.27344 5.9102 1.6289 8.5938 1.668v3.0625c0 5.7539 1.8984 9.0039 3.9531 11.664 2.0625 2.8164 5.0547 5.1875 5.5156 8.9766v12.281c0.027344 2.0273 3.0898 2.0742 3.125 0v-12.281c-0.24609-4.6562-3.7695-7.7227-6.1719-10.891-1.9805-2.5625-3.2969-5.1992-3.2969-9.75v-3.0156h6.25v3.5469c0.035156 2.0547 3.0898 2.0547 3.125 0v-19.172c0-2.5859 2.1016-4.6875 4.6875-4.6875h15.625c5.1172-0.074219 9.4258 4.2578 9.375 9.375v12.078c0 4.5781-1.3242 8.8359-3.8555 12.352-1.3281 1.8398-2.6992 3.7422-3.2422 6.2266-0.46875 0.015625-0.10156 15.57-0.21484 16.215 0.011719 2.0234 3.0977 2.0742 3.125 0l-0.003906-14.555c0.18359-2.3281 1.4414-4.0781 2.8984-6.0938 3.1289-4.2852 4.6055-9.7344 4.418-15.289h4.6875c2.5859 0 4.6875-2.1016 4.6875-4.6875v-6.25c0-2.5859-2.1016-4.6875-4.6875-4.6875zm-79.688-10.938h20.312v3.125h-0.78125c-0.86328 0-1.5625 0.69922-1.5625 1.5625v9.6094c-0.003906 4.2148 0.003906 12.754 0 16.953h-15.625v-25h9.375c2.0547-0.03125 2.0547-3.0938 0-3.125h-11.719zm20.312 37.5h-20.312v-3.125h20.312zm10.172-14.062c-2.9883 0.039062-6.4336-1.5508-9.3906-1.7422v-5.8828c2.9688-0.19531 6.4219-1.7852 9.3906-1.7461h8.5781v9.375h-8.5781zm50.766-1.5625c0 0.86328-0.69922 1.5625-1.5625 1.5625h-4.6875v-7.8125c0-0.52734-0.046875-1.0469-0.11328-1.5625h4.8008c0.86328 0 1.5625 0.69922 1.5625 1.5625z"/>
 <path d="m87.5 79.688h-75c-3.4453 0-6.25 2.8047-6.25 6.25s2.8047 6.25 6.25 6.25h75c8.2383-0.25391 8.2773-12.234 0-12.5zm-23.254 9.375 3.125-6.25h10.566l-3.125 6.25zm-14.062 0 3.125-6.25h10.566l-3.125 6.25zm-14.062 0 3.125-6.25h10.566l-3.125 6.25zm-14.062 0 3.125-6.25h10.566l-3.125 6.25zm-12.684-3.125c0-1.7227 1.4023-3.125 3.125-3.125h9.1914l-3.125 6.25h-6.0664c-1.7227 0-3.125-1.4023-3.125-3.125zm78.125 3.125h-9.1914l3.125-6.25h6.0664c4.1211 0.10938 4.1211 6.1406 0 6.25z"/>
</svg>
