<svg xmlns="http://www.w3.org/2000/svg" version="1.1" viewBox="0 0 100 105">
 <path d="m54.691 51.188 1.0352-30.449c0.14063-1.2852-0.33594-2.6367-1.5039-2.6367h-8.4297c-1.0859 0-1.6445 1.3555-1.5078 2.6367l1.0391 30.449c1.6094 3.5156 7.8086 3.3867 9.3672 0zm3.5859-28.555-0.97266 28.883c-1.6953 6.3242-12.91 6.2617-14.59 0l-0.97266-28.883c-1.8555 0.49219-7.7227 1.8906-7.4062 4.4961l2.1367 17.715c0.19922 1.7188-2.4102 2.0195-2.6094 0.30859l-1.9102-15.848c-14.266 7.6367-20.449 19.969-20.418 35.906 21.785 5.3164 55.168 5.3164 76.953 0 0.03125-15.938-6.1562-28.27-20.418-35.906l-1.9062 15.848c-0.19922 1.7109-2.8125 1.4141-2.6094-0.30859l2.1328-17.715c0.3125-2.6055-5.5625-4.0078-7.4062-4.4961zm0.082031-2.6875c2.5898 0.65625 10.254 2.582 10.102 6.6172 15.457 7.9219 22.547 21.051 22.641 38.195 6.4102 0.003907 8.8477 10.051 2.8438 12.379-25.414 9.8633-62.461 9.8594-87.875 0-5.9922-2.3281-3.6328-12.496 2.8438-12.402 0.10156-17.141 7.1914-30.254 22.641-38.172-0.14453-4.0352 7.5078-5.957 10.105-6.6172 0-1.9219 1.5938-4.4766 3.8398-4.4766h9.0234c2.4727 0 3.8398 2.6133 3.8398 4.4766zm-48.465 47.562c-4.5078-1.1914-6.2734 5.8672-2.8789 7.1875 24.777 9.6133 61.211 9.6172 85.984 0 3.4062-1.3242 1.543-8.2891-2.9844-7.1602-22.691 5.7891-57.434 5.7812-80.121-0.027344z" fill="#FFCC00"/>
</svg>