<svg xmlns="http://www.w3.org/2000/svg" version="1.1" viewBox="-5.0 -10.0 110.0 112.0">
 <path d="m55.141 54.816v-4.4336c0-6.6523 5.4414-12.094 12.094-12.094h9.8945c6.6523 0 12.094 5.4375 12.094 12.094v4.4336c2.0156 0 3.6992 0.66797 5.0508 2.0195 1.2461 1.2461 2.0195 2.9648 2.0195 4.8555v27.727c0 3.7852-3.0898 6.875-6.875 6.875l-34.359-0.003907c-3.7852 0-6.875-3.0898-6.875-6.875v-27.723c0-3.7969 3.0625-6.875 6.957-6.875zm2.4414-4.4336v4.4336h5.2969v-4.4336c0-2.3828 1.9727-4.3555 4.3555-4.3555h9.8945c2.3828 0 4.3555 1.9727 4.3555 4.3555v4.4336h5.2969v-4.4336c0-5.3047-4.3477-9.6523-9.6523-9.6523h-9.8945c-5.3047 0-9.6523 4.3438-9.6523 9.6523zm21.461 4.4336v-4.4336c0-1.0352-0.87891-1.9141-1.9141-1.9141h-9.8945c-1.0352 0-1.9141 0.87891-1.9141 1.9141v4.4336zm10.371 2.4414h-34.355c-2.4375 0-4.4336 1.9961-4.4336 4.4336v27.727c0 2.4375 1.9961 4.4336 4.4336 4.4336h34.359c2.4375 0 4.4336-1.9961 4.4336-4.4336l-0.003906-27.727c0-2.4375-1.9961-4.4336-4.4336-4.4336zm-17.18 4.4453c-2.1914 0-4.1758 0.88672-5.6094 2.3242-3.4375 3.4375-2.9922 9.1055 0.89062 11.984 0.375 0.27734 0.55859 0.64453 0.55859 1.1172v8.1172c0 1.1445 0.46875 2.1836 1.2227 2.9375 2.6289 2.6289 7.0977 0.73047 7.0977-2.9375v-8.1172c0-0.47266 0.18359-0.83984 0.55859-1.1172 0.99219-0.73438 1.8086-1.6992 2.3672-2.8086 2.6484-5.2539-1.1719-11.5-7.0859-11.5zm3.8867 4.0508c-3.4492-3.4492-9.3789-0.99609-9.3789 3.8828 0 1.7695 0.83203 3.3867 2.2227 4.418 0.99609 0.73828 1.5508 1.8398 1.5508 3.0703v8.1172c0 1.5 1.8359 2.3086 2.9297 1.2109 0.3125-0.3125 0.50781-0.74219 0.50781-1.2109v-8.1172c0-1.2344 0.55469-2.3359 1.5508-3.0703 2.6953-1.9961 2.9922-5.9258 0.61719-8.3008zm-33.723 21.734c-0.74219 0.15625-1.4961 0.007813-2.1523-0.36719l-32.543-18.793c-1.0039-0.58203-1.5508-1.5312-1.5508-2.6914v-37.578c0-1.1719 0.54688-2.0977 1.5508-2.6914l32.543-18.789c0.98828-0.57031 2.1172-0.57031 3.1055 0l32.543 18.789c1.0039 0.57812 1.5508 1.5273 1.5508 2.6914v4.7578c0 0.67578 0.54688 1.2227 1.2227 1.2227s1.2227-0.54687 1.2227-1.2227v-4.7578c0-2.0117-1.0273-3.7891-2.7734-4.8008l-32.547-18.785c-1.7344-1.0273-3.8047-1.0078-5.5469 0l-32.543 18.789c-1.7461 1.0117-2.7734 2.7773-2.7734 4.8008v37.578c0 2.0156 1.0273 3.7891 2.7734 4.8008l32.543 18.789c1.1602 0.6875 2.5469 0.92188 3.8672 0.64453 0.65625-0.13672 1.082-0.78125 0.94531-1.4414-0.13281-0.66016-0.77734-1.082-1.4375-0.94531zm26.484-54.734c0-0.80078 0.12891-1.5-0.6875-1.9336l-25.785-14.887c-0.39453-0.23047-0.86719-0.21094-1.2344 0.007812l-25.848 14.922c-0.375 0.21875-0.60938 0.61719-0.60938 1.0547v29.863c0 0.48438 0.28125 0.90234 0.6875 1.0977l25.781 14.887c0.75 0.43359 1.3555-0.074219 2.0703-0.48828 0.58203-0.33594 0.78125-1.082 0.44141-1.6641-0.33594-0.58203-1.082-0.78125-1.6641-0.44531l-0.23828 0.13672-24.641-14.227 0.003906-28.457 24.641-14.227 24.641 14.227v0.13281c0 0.67578 0.54688 1.2227 1.2227 1.2227 0.67188-0.003906 1.2188-0.55078 1.2188-1.2227zm-41.637 16.699 7.9648 7.9648c0.47656 0.47656 1.25 0.47656 1.7266 0l19.414-19.41c0.47656-0.47656 0.47656-1.25 0-1.7266-0.47656-0.47656-1.25-0.47656-1.7266 0l-18.551 18.547-7.1016-7.1016c-0.47656-0.47656-1.25-0.47656-1.7266 0-0.47656 0.47656-0.47656 1.25 0 1.7266z" fill-rule="evenodd" fill="#FFCC00"/>
</svg>