<svg xmlns="http://www.w3.org/2000/svg" version="1.1" viewBox="-5.0 -10.0 110.0 110.0" fill="#FFCC00">
 <path d="m70.578 56.699c-2.0312-1.2656-3.7383-3.0078-4.9648-5.0664-1.3398-2.25-2.1133-4.875-2.1133-7.668 0-3.7109 1.3555-7.1133 3.5938-9.7344 2.2695-2.6562 5.4531-4.5117 9.0703-5.0781 0.96484-0.14844 1.7227 0.55469 1.7227 1.4766l0.007812 11.836h1.2148v-11.836c0-0.91016 0.74609-1.6289 1.7266-1.4766 3.6133 0.56641 6.8008 2.4219 9.0703 5.0781 2.3242 2.7227 3.5938 6.1523 3.5938 9.7344 0 2.707-0.72656 5.3438-2.1133 7.668-1.2266 2.0586-2.9336 3.7969-4.9648 5.0664v31.496c0 2.1758-0.89062 4.1523-2.3242 5.5898-1.4336 1.4414-3.4141 2.332-5.5938 2.332-2.1797 0-4.1602-0.89063-5.5938-2.3242-1.4883-1.6133-2.3242-3.3633-2.3242-5.5938v-31.496zm-29.52 20.633c0-0.82812 0.67188-1.5 1.5-1.5s1.5 0.67188 1.5 1.5v3.2578c0 0.82812-0.67188 1.5-1.5 1.5s-1.5-0.67188-1.5-1.5zm0.003906-25.914c0-0.82812 0.67188-1.5 1.5-1.5s1.5 0.67188 1.5 1.5v20.574c0 0.82812-0.67188 1.5-1.5 1.5s-1.5-0.67188-1.5-1.5zm-2.6484-40.625c0-0.82812 0.67188-1.5 1.5-1.5 0.82813 0 1.5 0.67188 1.5 1.5v4.3945c0 0.41406-0.16797 0.78906-0.4375 1.0625l-3.0703 3.0703c-0.58594 0.58594-1.5352 0.58594-2.1211 0-0.58594-0.58594-0.58594-1.5352 0-2.1211l2.6328-2.6328v-3.7734zm1.5-7.3398c3.2383 0 6.1758 1.3164 8.2969 3.4375 2.1211 2.1211 3.4375 5.0586 3.4375 8.2969s-1.3164 6.1758-3.4375 8.2969c-1.1641 1.1641-2.5781 2.0898-4.1523 2.6836v3.1836h5.2852c2.6211 0 5 1.0703 6.7227 2.7891 1.7227 1.7227 2.7891 4.1016 2.7891 6.7188v48.098c0.59766 0.16406 1.1289 0.48047 1.5547 0.90234 0.63281 0.63281 1.0273 1.5117 1.0273 2.4727v2.7031c0 0.96094-0.39453 1.8359-1.0312 2.4688-0.62891 0.63672-1.5078 1.0312-2.4727 1.0312h-21.113c-0.96484 0-1.8398-0.39453-2.4727-1.0273-0.65625-0.72656-1.0273-1.4727-1.0273-2.4727v-2.7031c0-0.96484 0.39453-1.8398 1.0273-2.4727 0.42578-0.42578 0.96094-0.74219 1.5547-0.90234v-35.133h-6.707c-0.13672 0.69141-0.48047 1.3125-0.96094 1.793-0.63281 0.63281-1.5078 1.0273-2.4727 1.0273h-3.3867c-0.17578 0.51562-0.46484 0.97656-0.84375 1.3555-0.63281 0.63281-1.5078 1.0273-2.4727 1.0273h-9.0586c-0.96484 0-1.8398-0.39453-2.4727-1.0273-0.63281-0.63281-1.0273-1.5078-1.0273-2.4727v-25.879c0-0.96484 0.39453-1.8398 1.0273-2.4727 0.63281-0.63281 1.5078-1.0273 2.4727-1.0273h9.0586c0.96484 0 1.8398 0.39453 2.4727 1.0273 0.375 0.375 0.66797 0.83984 0.84375 1.3555h3.3867c0.96484 0 1.8398 0.39453 2.4727 1.0273 0.48047 0.48047 0.82031 1.1016 0.96094 1.793h6.5703v-3.1836c-1.5703-0.59375-2.9844-1.5156-4.1484-2.6797-2.1211-2.1211-3.4375-5.0586-3.4375-8.2969 0-3.2383 1.3164-6.1758 3.4375-8.2969 2.1211-2.1211 5.0586-3.4375 8.2969-3.4375zm1.1484 23.414c-0.375 0.035156-0.75781 0.054687-1.1484 0.054687-0.38672 0-0.76953-0.019531-1.1484-0.054687v2.4844h2.293v-2.4844zm5.0273-17.855c-1.5781-1.5781-3.7656-2.5586-6.1758-2.5586-2.4102 0-4.5977 0.98047-6.1758 2.5586s-2.5586 3.7656-2.5586 6.1758 0.98047 4.5977 2.5586 6.1758c1.6523 1.6523 3.8594 2.5586 6.1758 2.5586 2.3164 0 4.5234-0.90625 6.1758-2.5586 1.5781-1.5781 2.5586-3.7656 2.5586-6.1758s-0.98047-4.5977-2.5586-6.1758zm-7.1836 77.824h16.953v-47.973c0-1.793-0.73047-3.4219-1.9102-4.5977-1.1797-1.1797-2.8086-1.9141-4.6016-1.9141h-20.086v16.477h8.1445c0.82812 0 1.5 0.67188 1.5 1.5v36.512zm-2.582 3.5v2.7031c0 0.13672 0.046875 0.25781 0.14844 0.35156 0.089844 0.089844 0.21875 0.14844 0.35156 0.14844h21.113c0.13672 0 0.26172-0.058593 0.35156-0.14844 0.09375-0.085937 0.14844-0.21094 0.14844-0.35156v-2.7031c0-0.13672-0.058594-0.26172-0.14844-0.35156-0.089843-0.089844-0.21484-0.14844-0.35156-0.14844h-21.113c-0.13672 0-0.26172 0.058593-0.35156 0.14844s-0.14844 0.21875-0.14844 0.35156zm-10.562-60.809h-3.2031v22.117h3.2031c0.13672 0 0.26172-0.058593 0.35156-0.14844 0.089844-0.089844 0.14844-0.21484 0.14844-0.35156v-21.113c0-0.13672-0.058594-0.26172-0.14844-0.35156-0.089843-0.089844-0.21484-0.14844-0.35156-0.14844zm-6.7031-2.3789h-9.0586c-0.13672 0-0.26172 0.058593-0.35156 0.14844-0.089844 0.089844-0.14844 0.21484-0.14844 0.35156v25.879c0 0.13672 0.058594 0.26172 0.14844 0.35156 0.089843 0.089844 0.21484 0.14844 0.35156 0.14844h9.0586c0.13672 0 0.26172-0.058594 0.35156-0.14844s0.14844-0.21484 0.14844-0.35156v-25.879c0-0.13672-0.058594-0.26172-0.14844-0.35156s-0.21484-0.14844-0.35156-0.14844zm59.438 28.734c0.94922 0 1.8125 0.38672 2.4336 1.0117 0.62109 0.62109 1.0117 1.4844 1.0117 2.4336v29.02c0 0.94531-0.38672 1.8047-1.0117 2.4297-0.62109 0.62891-1.4844 1.0156-2.4336 1.0156-0.94922 0-1.8125-0.38672-2.4336-1.0117-0.62109-0.62891-1.0117-1.4883-1.0117-2.4336v-29.02c0-0.94531 0.38672-1.8086 1.0117-2.4336 0.62109-0.62109 1.4844-1.0117 2.4336-1.0117zm0.003906 3c-0.12109 0-0.23438 0.050782-0.3125 0.13281-0.078125 0.078125-0.13281 0.19141-0.13281 0.3125v29.02c0 0.12109 0.050781 0.23438 0.12891 0.31641 0.082031 0.078126 0.19531 0.12891 0.3125 0.12891 0.12109 0 0.23438-0.050781 0.3125-0.13281 0.082031-0.078125 0.13281-0.19141 0.13281-0.3125v-29.02c0-0.12109-0.050781-0.23047-0.13281-0.3125-0.078125-0.078125-0.19141-0.13281-0.3125-0.13281zm5.793-4.4062c1.9062-1.1445 3.3594-2.4258 4.5273-4.3789 0.82422-1.3828 1.3789-2.9531 1.5859-4.6328h-14.012c-0.82812 0-1.5-0.67188-1.5-1.5v-11.453c-2.1719 0.68359-4.0781 1.9727-5.5234 3.6641-1.7852 2.0898-2.8672 4.8125-2.8672 7.7891 0 2.2461 0.61328 4.3477 1.6758 6.1328 1.1641 1.9531 2.6211 3.2344 4.5273 4.3789 0.48828 0.28516 0.875 0.75781 0.875 1.3633v32.355c0 1.2695 0.51953 2.5938 1.4453 3.4727 0.89062 0.89062 2.1211 1.4453 3.4727 1.4453s2.582-0.55469 3.4727-1.4453c0.89453-0.89062 1.4453-2.1211 1.4453-3.4727v-32.352c0-0.60547 0.375-1.0742 0.875-1.3633zm-2.1875-12.016h8.2969c-0.29688-2.3867-1.293-4.5547-2.7734-6.2891-1.4453-1.6953-3.3555-2.9805-5.5234-3.6641z"/>
</svg>
