<svg xmlns="http://www.w3.org/2000/svg" data-name="Layer 1" viewBox="-5.0 -10.0 110.0 112.0" x="0px" y="0px"><path d="M43.406,45.876v6.997c0,.646,.524,1.17,1.17,1.17h16.323c.646,0,1.17-.524,1.17-1.17v-6.997c0-.646-.524-1.17-1.17-1.17h-16.323c-.646,0-1.17,.524-1.17,1.17Zm2.341,1.17h13.982v4.656h-13.982v-4.656Zm-3.535-11.502c3.746,0,6.794-3.048,6.794-6.794s-3.048-6.794-6.794-6.794-6.794,3.048-6.794,6.794,3.048,6.794,6.794,6.794Zm0-11.248c2.456,0,4.454,1.998,4.454,4.454s-1.998,4.454-4.454,4.454-4.454-1.998-4.454-4.454,1.998-4.454,4.454-4.454Zm31.451,30.661c-.701,0-1.394,.034-2.078,.099v-19.561l6.632,4.929c.206,.153,.451,.231,.698,.231,.179,0,.359-.041,.526-.125,.395-.199,.645-.603,.645-1.046v-9.993c0-.37-.175-.718-.472-.939L42.909,1.274c-.414-.308-.982-.308-1.396,0L4.81,28.553c-.297,.221-.472,.569-.472,.939v9.993c0,.442,.249,.847,.645,1.046,.395,.198,.869,.158,1.224-.106l6.632-4.929v35.178h-3.808c-.646,0-1.17,.524-1.17,1.17v5.648c0,.646,.524,1.17,1.17,1.17H51.728c.873,11.337,10.377,20.295,21.934,20.295,12.131,0,22-9.869,22-22s-9.869-22-22-22ZM6.679,30.081L42.211,3.671l35.532,26.409v7.077L42.909,11.267c-.207-.154-.453-.231-.698-.231s-.491,.077-.698,.231L6.679,37.157v-7.077Zm8.5,3.675L42.211,13.664l27.032,20.092v21.647c-7.96,1.63-14.367,7.572-16.665,15.27h-16.754v-24.797c0-.646-.524-1.17-1.17-1.17h-11.131c-.646,0-1.17,.524-1.17,1.17v24.797h-7.174V33.756Zm18.305,36.918h-8.79v-23.627h8.79v23.627Zm-23.283,2.341H52.017c-.196,1.077-.313,2.182-.345,3.307H10.2v-3.307Zm63.462,23.602c-10.84,0-19.659-8.819-19.659-19.659s8.819-19.659,19.659-19.659,19.659,8.819,19.659,19.659-8.819,19.659-19.659,19.659Zm-3.848-23.071c.607,1.139,2.249,1.637,3.986,2.166,2.118,.643,4.518,1.373,5.756,3.525,.006,.011,.012,.022,.018,.033,1.157,2.17,.603,4.839-1.378,6.642-.953,.867-2.119,1.436-3.365,1.656v2.292c0,.646-.524,1.17-1.17,1.17s-1.17-.524-1.17-1.17v-2.292c-3.166-.556-5.58-3.324-5.58-6.646,0-.646,.524-1.17,1.17-1.17s1.17,.524,1.17,1.17c0,2.431,1.978,4.41,4.41,4.41,1.094,0,2.145-.408,2.96-1.15,.903-.822,1.677-2.306,.897-3.793-.781-1.337-2.538-1.871-4.399-2.437-2.118-.644-4.308-1.309-5.372-3.304-1.157-2.17-.603-4.84,1.378-6.642,.953-.867,2.119-1.435,3.365-1.656v-2.292c0-.646,.524-1.17,1.17-1.17s1.17,.524,1.17,1.17v2.292c3.166,.556,5.58,3.324,5.58,6.646,0,.646-.524,1.17-1.17,1.17s-1.17-.524-1.17-1.17c0-2.431-1.978-4.41-4.41-4.41-1.094,0-2.145,.408-2.96,1.15-.907,.825-1.683,2.318-.888,3.81Z" fill="#FFCC00"/></svg>